<?xml version="1.0" standalone="no"?>
<!DOCTYPE svg PUBLIC "-//W3C//DTD SVG 20010904//EN"
 "http://www.w3.org/TR/2001/REC-SVG-20010904/DTD/svg10.dtd">
<svg version="1.0" xmlns="http://www.w3.org/2000/svg"
 width="700.000000pt" height="700.000000pt" viewBox="0 0 700.000000 700.000000"
 preserveAspectRatio="xMidYMid meet">
<metadata>
Created by potrace 1.11, written by Peter Selinger 2001-2013
</metadata>
<g transform="translate(0.000000,700.000000) scale(0.100000,-0.100000)"
fill="#000000" stroke="none">
<path d="M2186 6980 c-52 -26 -74 -47 -99 -95 -18 -35 -21 -56 -19 -155 1 -63
4 -128 6 -145 3 -16 8 -57 11 -90 4 -33 15 -105 26 -160 64 -322 194 -624 386
-895 l53 -75 -172 -5 c-157 -5 -176 -7 -209 -28 -94 -58 -130 -173 -83 -265
40 -79 90 -109 194 -116 l75 -6 -105 -71 c-1001 -673 -959 -643 -1129 -807
-312 -302 -535 -691 -641 -1117 -15 -63 -31 -135 -35 -160 -4 -25 -9 -54 -11
-65 -18 -96 -25 -472 -11 -575 3 -25 9 -67 12 -95 9 -78 54 -271 87 -375 198
-622 656 -1143 1243 -1413 215 -99 402 -154 645 -192 19 -3 46 -7 60 -10 14
-2 53 -7 87 -10 34 -3 70 -7 80 -9 11 -2 59 -7 108 -11 49 -4 105 -9 125 -11
307 -25 981 -25 1255 0 22 2 79 7 127 11 49 3 96 8 105 10 10 1 47 6 83 10
121 12 304 45 415 75 778 208 1386 794 1629 1570 19 63 38 129 41 145 22 111
46 260 52 315 10 88 9 378 0 470 -28 274 -104 535 -232 795 -107 217 -219 381
-373 546 -68 74 -102 107 -202 198 -56 51 -221 168 -495 352 -159 107 -291
197 -293 201 -2 5 -8 8 -12 8 -5 0 -54 32 -110 70 -56 39 -103 70 -105 70 -2
0 -30 18 -61 40 l-57 40 67 0 c104 0 167 34 208 114 46 89 13 206 -74 264 -40
26 -47 27 -216 32 l-174 5 48 65 c139 188 258 429 336 680 29 95 66 254 74
320 2 19 6 49 9 65 10 75 16 148 17 245 2 137 -19 182 -113 240 -21 13 -187
15 -1309 17 -1259 2 -1286 2 -1324 -17z m2324 -427 c-5 -21 -11 -60 -15 -88
-15 -124 -81 -333 -149 -479 -104 -222 -223 -391 -404 -573 l-53 -53 -388 0
-387 0 -60 58 c-79 77 -160 172 -221 257 -48 68 -163 260 -163 273 0 3 -13 33
-29 66 -47 99 -99 261 -126 391 -9 42 -25 151 -25 168 0 16 55 17 1014 17
l1014 0 -8 -37z m-257 -1840 c194 -130 516 -347 717 -481 408 -274 444 -300
538 -381 176 -152 320 -331 434 -537 45 -82 108 -217 113 -244 2 -8 10 -33 18
-55 39 -99 77 -264 94 -407 15 -119 8 -406 -12 -518 -9 -47 -14 -75 -20 -100
-3 -14 -8 -38 -10 -54 -8 -43 -73 -241 -90 -273 -8 -15 -15 -32 -15 -36 0 -9
-65 -140 -98 -199 -121 -214 -318 -434 -526 -591 -212 -160 -542 -305 -776
-342 -19 -3 -46 -8 -60 -10 -28 -6 -55 -10 -150 -20 -36 -3 -77 -9 -92 -11
-25 -4 -101 -11 -203 -19 -350 -27 -868 -27 -1225 0 -105 8 -187 15 -210 20
-14 2 -52 7 -85 10 -68 6 -119 13 -155 20 -13 3 -41 7 -62 10 -104 16 -344 95
-468 156 -49 23 -228 127 -245 141 -5 5 -35 27 -65 50 -120 88 -254 217 -352
338 -200 246 -366 623 -403 916 -4 27 -10 76 -15 109 -8 66 -5 369 5 425 31
176 38 211 54 270 116 427 385 807 756 1071 28 20 208 142 400 271 193 129
508 341 700 471 l350 236 403 1 403 0 352 -237z"/>
<path d="M3440 4104 c-25 -7 -61 -28 -79 -46 -55 -53 -64 -86 -66 -246 -1 -78
-4 -143 -6 -145 -2 -1 -35 -17 -73 -36 -67 -34 -84 -46 -155 -114 -178 -170
-225 -468 -110 -700 99 -200 290 -324 527 -341 80 -6 127 -24 166 -62 77 -78
77 -211 0 -288 -55 -55 -76 -59 -349 -61 -273 -2 -297 -6 -350 -61 -79 -84
-77 -211 6 -292 46 -45 101 -58 230 -57 70 1 109 -3 110 -9 1 -6 2 -63 3 -126
3 -126 15 -167 62 -214 78 -78 210 -78 288 0 49 50 59 85 61 242 1 78 4 144 6
145 2 1 36 18 74 37 291 143 412 518 263 814 -100 199 -290 323 -523 340 -39
3 -86 12 -106 20 -161 67 -162 295 -2 371 31 15 73 18 287 20 272 2 295 6 348
59 81 83 81 210 -1 293 -45 45 -89 56 -223 57 -71 1 -118 5 -119 11 -1 6 -2
62 -4 125 -3 129 -14 168 -65 217 -52 51 -127 68 -200 47z"/>
</g>
</svg>
